<svg xmlns="http://www.w3.org/2000/svg" xmlns:xlink="http://www.w3.org/1999/xlink" width="500" zoomAndPan="magnify" viewBox="0 0 375 374.999991" height="500" preserveAspectRatio="xMidYMid meet" version="1.0"><defs><clipPath id="id1"><path d="M 267 9 L 336.75 9 L 336.75 366 L 267 366 Z M 267 9 " clip-rule="nonzero"/></clipPath><clipPath id="id2"><path d="M 37.5 39 L 109 39 L 109 366 L 37.5 366 Z M 37.5 39 " clip-rule="nonzero"/></clipPath><clipPath id="id3"><path d="M 37.5 91 L 109 91 L 109 104 L 37.5 104 Z M 37.5 91 " clip-rule="nonzero"/></clipPath><clipPath id="id4"><path d="M 37.5 175 L 39 175 L 39 366 L 37.5 366 Z M 37.5 175 " clip-rule="nonzero"/></clipPath><clipPath id="id5"><path d="M 37.5 352 L 38 352 L 38 367 L 37.5 367 Z M 37.5 352 " clip-rule="nonzero"/></clipPath><clipPath id="id6"><path d="M 336 174 L 336.75 174 L 336.75 365 L 336 365 Z M 336 174 " clip-rule="nonzero"/></clipPath><clipPath id="id7"><path d="M 208.058594 246.628906 L 277.757812 246.628906 L 277.757812 368.078125 L 208.058594 368.078125 Z M 208.058594 246.628906 " clip-rule="nonzero"/></clipPath><clipPath id="id8"><path d="M 259 341 L 277.757812 341 L 277.757812 364 L 259 364 Z M 259 341 " clip-rule="nonzero"/></clipPath><clipPath id="id9"><path d="M 277 341 L 277.757812 341 L 277.757812 368.078125 L 277 368.078125 Z M 277 341 " clip-rule="nonzero"/></clipPath><clipPath id="id10"><path d="M 267 139.164062 L 337.125 139.164062 L 337.125 366 L 267 366 Z M 267 139.164062 " clip-rule="nonzero"/></clipPath><clipPath id="id11"><path d="M 273 139.164062 L 332 139.164062 L 332 335 L 273 335 Z M 273 139.164062 " clip-rule="nonzero"/></clipPath><clipPath id="id12"><path d="M 266.625 139.164062 L 268 139.164062 L 268 366 L 266.625 366 Z M 266.625 139.164062 " clip-rule="nonzero"/></clipPath><clipPath id="id13"><path d="M 336 174 L 337.125 174 L 337.125 365 L 336 365 Z M 336 174 " clip-rule="nonzero"/></clipPath><clipPath id="id14"><path d="M 208.058594 246.628906 L 279.257812 246.628906 L 279.257812 314.828125 L 208.058594 314.828125 Z M 208.058594 246.628906 " clip-rule="nonzero"/></clipPath><clipPath id="id15"><path d="M 236 265 L 274 265 L 274 314.828125 L 236 314.828125 Z M 236 265 " clip-rule="nonzero"/></clipPath><clipPath id="id16"><path d="M 216 309 L 248 309 L 248 314.828125 L 216 314.828125 Z M 216 309 " clip-rule="nonzero"/></clipPath></defs><g clip-path="url(#id1)"><path fill="rgb(58.039856%, 81.17981%, 76.858521%)" d="M 334.140625 12.054688 C 331.96875 8.167969 274.585938 8.28125 271.5 12.054688 C 263.800781 21.464844 268.441406 140.917969 268.597656 187.199219 C 268.441406 233.476562 263.800781 352.929688 271.5 362.339844 C 274.585938 366.113281 331.96875 366.226562 334.140625 362.339844 C 340.667969 350.671875 336.121094 234.460938 335.894531 187.199219 C 336.121094 139.933594 340.667969 23.726562 334.140625 12.054688 Z M 334.140625 12.054688 " fill-opacity="1" fill-rule="nonzero"/></g><path fill="rgb(65.879822%, 84.309387%, 81.17981%)" d="M 328.664062 42.238281 C 326.863281 39.019531 279.371094 39.113281 276.816406 42.238281 C 270.445312 50.027344 274.285156 148.894531 274.414062 187.199219 C 274.285156 225.5 270.445312 324.371094 276.816406 332.160156 C 279.371094 335.28125 326.863281 335.378906 328.664062 332.160156 C 334.0625 322.5 330.300781 226.316406 330.113281 187.199219 C 330.300781 148.082031 334.066406 51.898438 328.664062 42.238281 Z M 328.664062 42.238281 " fill-opacity="1" fill-rule="nonzero"/><path fill="rgb(92.939758%, 53.329468%, 46.269226%)" d="M 174.941406 12.054688 C 172.765625 8.167969 115.382812 8.28125 112.296875 12.054688 C 104.597656 21.464844 109.238281 140.917969 109.394531 187.199219 C 109.238281 233.476562 104.597656 352.929688 112.296875 362.339844 C 115.382812 366.113281 172.765625 366.226562 174.941406 362.339844 C 181.464844 350.671875 176.917969 234.460938 176.6875 187.199219 C 176.914062 139.933594 181.464844 23.726562 174.941406 12.054688 Z M 174.941406 12.054688 " fill-opacity="1" fill-rule="nonzero"/><path fill="rgb(93.328857%, 63.139343%, 57.649231%)" d="M 163.765625 73.609375 C 162.355469 71.09375 132.269531 72.054688 130.269531 74.503906 C 125.277344 80.605469 121.160156 157.183594 121.261719 187.199219 C 121.15625 217.210938 118.148438 294.679688 123.140625 300.785156 C 125.140625 303.230469 162.355469 303.304688 163.765625 300.785156 C 168 293.214844 165.046875 217.847656 164.902344 187.199219 C 165.046875 156.546875 168 81.179688 163.765625 73.609375 Z M 163.765625 73.609375 " fill-opacity="1" fill-rule="nonzero"/><g clip-path="url(#id2)"><path fill="rgb(96.859741%, 69.018555%, 49.409485%)" d="M 105.011719 42.484375 C 102.84375 38.933594 45.460938 39.039062 42.371094 42.484375 C 34.675781 51.085938 39.316406 160.246094 39.46875 202.539062 C 39.316406 244.828125 34.675781 353.992188 42.371094 362.59375 C 45.460938 366.039062 102.84375 366.140625 105.011719 362.59375 C 111.542969 351.925781 106.992188 245.730469 106.765625 202.539062 C 106.992188 159.347656 111.542969 53.152344 105.011719 42.484375 Z M 105.011719 42.484375 " fill-opacity="1" fill-rule="nonzero"/></g><path fill="rgb(95.289612%, 58.81958%, 43.139648%)" d="M 107.78125 344.980469 C 108.152344 338.71875 108.367188 331.183594 108.460938 322.804688 L 38.089844 322.804688 C 38.238281 331.195312 38.519531 338.734375 38.972656 344.980469 Z M 107.78125 344.980469 " fill-opacity="1" fill-rule="nonzero"/><g clip-path="url(#id3)"><path fill="rgb(95.289612%, 58.81958%, 43.139648%)" d="M 37.972656 91.898438 C 37.945312 95.707031 37.9375 99.628906 37.949219 103.640625 L 108.480469 103.640625 C 108.511719 99.628906 108.519531 95.707031 108.515625 91.898438 Z M 37.972656 91.898438 " fill-opacity="1" fill-rule="nonzero"/></g><path fill="rgb(95.289612%, 58.81958%, 43.139648%)" d="M 108.464844 82.765625 C 108.425781 78.90625 108.359375 75.21875 108.265625 71.75 L 38.363281 71.75 C 38.238281 75.21875 38.144531 78.90625 38.078125 82.765625 Z M 108.464844 82.765625 " fill-opacity="1" fill-rule="nonzero"/><path fill="rgb(96.859741%, 69.018555%, 49.409485%)" d="M 266.441406 14.691406 C 264.53125 10.667969 207.269531 6.953125 203.941406 10.511719 C 195.628906 19.390625 192.289062 138.886719 189.351562 185.074219 C 186.109375 231.238281 173.5 350.117188 180.554688 360.019531 C 183.382812 363.988281 240.625 367.933594 243.054688 364.199219 C 250.347656 352.988281 253.566406 236.734375 256.496094 189.5625 C 259.875 142.417969 272.175781 26.773438 266.441406 14.691406 Z M 266.441406 14.691406 " fill-opacity="1" fill-rule="nonzero"/><path fill="rgb(95.689392%, 61.959839%, 42.749023%)" d="M 206.980469 60.785156 C 226.519531 65.398438 246.730469 66.269531 266.179688 71.03125 C 266.515625 66.035156 266.816406 61.199219 267.070312 56.609375 C 243.859375 52.949219 220.664062 49.1875 197.503906 45.230469 C 197.078125 49.722656 196.671875 54.535156 196.285156 59.550781 C 199.828125 59.550781 203.414062 59.941406 206.980469 60.785156 Z M 206.980469 60.785156 " fill-opacity="1" fill-rule="nonzero"/><path fill="rgb(95.689392%, 61.959839%, 42.749023%)" d="M 248.941406 326.699219 C 249.523438 319.734375 250.066406 312.125 250.578125 304.125 C 249.859375 304.054688 249.136719 303.992188 248.414062 303.917969 C 225.695312 301.660156 202.765625 299.402344 180.515625 294.273438 C 180.003906 301.773438 179.558594 308.996094 179.210938 315.746094 C 202.132812 321.03125 225.539062 323.964844 248.941406 326.699219 Z M 248.941406 326.699219 " fill-opacity="1" fill-rule="nonzero"/><g clip-path="url(#id4)"><path stroke-linecap="round" transform="matrix(1.74002, 0, 0, 1.739411, -182.222254, -182.409158)" fill="none" stroke-linejoin="round" d="M 123.155205 209.166817 C 123.155205 209.166817 123.155205 209.620455 123.155205 210.469341 C 123.34827 219.216464 123.667052 227.049573 123.305616 235.64174 C 123.238268 237.186803 123.170919 238.761061 123.155205 240.351038 C 123.155205 248.561431 123.155205 257.584779 123.155205 266.367833 C 123.155205 267.832049 123.141735 269.291775 123.094591 270.742517 C 121.666806 280.051072 123.667052 289.049716 123.249492 297.729467 C 123.186634 298.764749 123.168674 299.761854 123.155205 300.707306 C 123.155205 307.343442 123.155205 311.50029 123.155205 311.50029 " stroke="rgb(69.40918%, 49.798584%, 29.019165%)" stroke-width="7" stroke-opacity="1" stroke-miterlimit="10"/></g><g clip-path="url(#id5)"><path stroke-linecap="round" transform="matrix(1.74002, 0, 0, 1.739411, -182.222254, -182.409158)" fill="none" stroke-linejoin="round" d="M 69.572858 311.50029 C 69.572858 311.50029 74.545411 311.50029 81.450862 311.50029 C 82.074957 311.540713 82.717011 311.567662 83.368045 311.623805 C 92.668852 313.049844 101.668836 310.049548 110.942704 311.459867 C 111.571289 311.477833 112.184159 311.489061 112.781314 311.50029 C 118.716949 311.50029 122.822953 311.50029 122.822953 311.50029 " stroke="rgb(69.40918%, 49.798584%, 29.019165%)" stroke-width="7" stroke-opacity="1" stroke-miterlimit="10"/></g><g clip-path="url(#id6)"><path stroke-linecap="round" transform="matrix(1.74002, 0, 0, 1.739411, -182.222254, -182.409158)" fill="none" stroke-linejoin="round" d="M 302.043645 208.484115 C 302.043645 208.484115 302.043645 208.939998 302.043645 209.788885 C 301.850579 218.536007 301.531797 226.369117 301.895478 234.961284 C 301.960582 236.504101 302.02793 238.078359 302.043645 239.670582 C 302.043645 247.880975 302.043645 256.902076 302.043645 265.687376 C 302.043645 267.151593 302.057114 268.609072 302.104258 270.06206 C 303.532043 279.36837 301.534042 288.36926 301.951602 297.046765 C 302.01446 298.084293 302.03242 299.079151 302.045889 300.02685 C 302.045889 306.662985 302.045889 310.817588 302.045889 310.817588 " stroke="rgb(69.40918%, 49.798584%, 29.019165%)" stroke-width="7" stroke-opacity="1" stroke-miterlimit="10"/></g><g clip-path="url(#id7)"><path fill="rgb(93.728638%, 61.178589%, 61.178589%)" d="M 331.882812 393.265625 C 334.414062 392.886719 337.082031 392.417969 338.847656 391.484375 C 341.644531 390.003906 344.519531 385.882812 342.847656 381.519531 C 340.394531 375.117188 326.050781 376.21875 318.546875 375.867188 C 316.953125 380.648438 316.503906 388.609375 317.660156 394.308594 C 323.089844 394.265625 327.558594 393.921875 331.882812 393.265625 Z M 282.988281 342.410156 C 282.792969 346.699219 284.292969 350.542969 283.285156 354.15625 C 282.976562 355.253906 281.519531 356.296875 281.210938 357.726562 C 280.832031 359.460938 281.566406 360.667969 281.359375 362.632812 C 284.277344 362.230469 287.808594 362.445312 290.691406 362.1875 C 290.597656 361.347656 289.160156 360.304688 290.25 359.660156 C 291.085938 359.90625 291.660156 360.898438 292.027344 361.742188 C 294.328125 367.03125 288.703125 369.144531 285.210938 370.8125 C 282.777344 371.976562 280.226562 373.316406 278.839844 375.125 C 276.113281 378.675781 277.074219 383.285156 279.875 385.980469 C 282.976562 388.964844 287.921875 390.707031 293.804688 392.375 C 300.546875 394.285156 308.769531 394.691406 316.324219 394.160156 C 315.449219 388.441406 316.023438 381.621094 317.214844 375.71875 C 315.613281 375.753906 313.820312 376.007812 312.027344 375.867188 C 310.410156 375.746094 308.28125 375.769531 307.4375 374.53125 C 308.078125 374.238281 309.332031 374.433594 309.660156 374.234375 C 315.90625 371.878906 318.941406 365.800781 319.140625 358.46875 C 319.320312 351.835938 314.3125 348.753906 309.808594 346.871094 C 302.347656 343.753906 292.972656 341.800781 282.988281 341.964844 C 282.988281 342.113281 282.988281 342.261719 282.988281 342.410156 Z M 263.429688 343.152344 C 263.753906 344.5 263.324219 345.863281 263.28125 347.019531 C 263.109375 351.824219 264.59375 358.457031 261.949219 360.851562 C 260.800781 361.886719 259.070312 360.964844 259.28125 363.378906 C 266.3125 362.585938 274.671875 362.832031 280.023438 362.632812 C 280.269531 360.402344 279.464844 358.722656 280.171875 356.835938 C 280.617188 355.648438 281.988281 354.652344 282.246094 353.265625 C 282.824219 350.179688 282.023438 345.199219 281.507812 341.964844 C 275.976562 342.464844 269.671875 342.328125 263.429688 343.152344 Z M 238.980469 341.519531 C 234.945312 346.496094 229.480469 352.558594 229.5 360.105469 C 236.464844 363.941406 247.847656 364.597656 257.800781 363.378906 C 258.023438 362.464844 258.285156 361.585938 258.539062 360.699219 C 261.75 360.570312 262.347656 357.636719 262.539062 354.457031 C 262.761719 350.765625 262.355469 346.1875 262.097656 343.449219 C 254.40625 344.195312 243.960938 345.878906 238.980469 341.519531 Z M 212.164062 337.355469 C 212.164062 348.761719 220.640625 356.042969 228.460938 359.511719 C 227.640625 357.640625 228.945312 355 229.796875 352.96875 C 231.816406 348.125 235.339844 343.984375 238.09375 340.625 C 236.289062 338.011719 234.160156 335.140625 234.832031 330.511719 C 232.113281 331.066406 230.328125 330.253906 228.164062 329.769531 C 225.597656 329.195312 223.296875 329.046875 221.792969 327.984375 C 221.0625 327.46875 220.714844 326.5625 220.015625 326.050781 C 218.542969 324.976562 216.554688 324.621094 215.71875 322.929688 C 213.246094 326.773438 212.164062 332.089844 212.164062 337.355469 Z M 242.980469 312.816406 C 241.007812 312.160156 238.714844 312.445312 237.054688 311.480469 C 236.101562 310.921875 236.003906 310.050781 234.980469 309.398438 C 227.21875 311.917969 219.902344 314.886719 216.460938 321.738281 C 217.324219 324.164062 221.242188 324.621094 222.535156 327.09375 C 226.199219 328.46875 230.316406 329.851562 235.425781 329.324219 C 237.816406 323.792969 242.996094 321.058594 247.722656 317.875 C 246.261719 316.042969 245.464844 313.640625 242.980469 312.816406 Z M 246.835938 282.183594 C 248.753906 283.988281 250.519531 288.203125 250.390625 292 C 250.066406 301.4375 242.898438 306.285156 236.609375 309.101562 C 237.871094 311.40625 240.554688 310.910156 242.6875 311.332031 C 245.800781 311.945312 247.390625 315.007812 248.910156 317.277344 C 255.527344 313.957031 262.125 312.078125 266.984375 306.722656 C 270.421875 302.933594 273.226562 296.304688 273.652344 289.917969 C 274.367188 279.265625 268.578125 271.898438 264.171875 265.230469 C 264.160156 265.140625 264.148438 265.054688 264.023438 265.082031 C 260.894531 273.394531 254.109375 278.035156 246.835938 282.183594 Z M 248.019531 252.742188 C 238.554688 248.863281 218.855469 245.828125 212.753906 254.972656 C 211.054688 257.519531 209.457031 262.617188 210.382812 266.570312 C 211.429688 271.019531 216.558594 274.949219 220.757812 276.386719 C 226.894531 278.484375 234.882812 277.78125 241.5 279.507812 C 242.851562 279.859375 244.574219 280.972656 245.5 280.996094 C 247.371094 281.039062 250.101562 278.550781 251.722656 277.425781 C 256.910156 273.832031 261.015625 269.84375 263.429688 264.042969 C 259.484375 259.125 254.296875 255.3125 248.019531 252.742188 Z M 315.140625 373.636719 C 325.753906 374.238281 341.015625 372.441406 344.480469 380.628906 C 345.199219 382.332031 345.535156 385.453125 344.773438 387.765625 C 342.394531 395.007812 331.964844 395.929688 322.253906 396.390625 C 315.890625 396.691406 309.09375 396.652344 303.289062 396.09375 C 297.050781 395.492188 292.214844 394.308594 287.136719 392.375 C 282.449219 390.589844 277.464844 387.859375 275.726562 383.898438 C 272.980469 377.644531 277.476562 372.726562 281.210938 370.367188 C 284.253906 368.441406 288.464844 367.84375 290.394531 364.566406 C 281.410156 364.648438 273.753906 365.078125 265.355469 365.164062 C 263.257812 365.183594 261.332031 365.097656 259.429688 365.3125 C 258.8125 365.378906 258.179688 365.234375 257.652344 365.3125 C 256.84375 365.429688 256.359375 365.984375 255.578125 366.054688 C 254.945312 366.109375 254.207031 365.796875 253.5 365.757812 C 251.578125 365.648438 249.210938 365.796875 247.128906 365.90625 C 244.183594 366.0625 241.46875 365.632812 238.980469 365.164062 C 229.289062 363.328125 220.9375 358.613281 215.71875 351.925781 C 213.097656 348.566406 210.769531 344.214844 210.238281 339.140625 C 208.894531 326.378906 215.273438 317.480469 221.941406 312.667969 C 229.113281 307.5 241.785156 307.050781 246.390625 299.136719 C 249.675781 293.492188 248.804688 284.59375 242.980469 282.035156 C 239.910156 280.6875 236.105469 280.777344 232.3125 280.398438 C 224.6875 279.644531 218.34375 278.371094 213.644531 274.453125 C 210.191406 271.574219 206.890625 266.804688 208.457031 259.582031 C 210.097656 252.023438 216.273438 247.453125 224.757812 246.792969 C 235.386719 245.960938 243.960938 248.425781 250.835938 251.550781 C 260.296875 255.855469 266.070312 263.378906 271.132812 272.222656 C 272.382812 274.402344 273.695312 276.878906 274.394531 279.210938 C 276.273438 285.464844 275.515625 292.429688 273.949219 297.5 C 272.273438 302.929688 269.617188 306.964844 265.949219 310.140625 C 262.175781 313.40625 257.621094 315.648438 252.910156 317.875 C 250.558594 318.984375 248.296875 320.070312 246.09375 321.441406 C 242.523438 323.667969 238.617188 326.289062 237.203125 330.511719 C 235.59375 335.332031 239.511719 340.324219 243.574219 341.519531 C 248.933594 343.089844 256.332031 341.886719 262.539062 341.070312 C 268.652344 340.265625 275.808594 339.734375 281.949219 339.734375 C 288.636719 339.734375 295.339844 340.136719 300.769531 341.519531 C 303.640625 342.25 306.152344 343.15625 308.621094 344.046875 C 311.207031 344.980469 313.75 345.992188 315.734375 347.316406 C 317.226562 348.316406 319.957031 352.121094 320.625 353.859375 C 322.304688 358.242188 320.457031 365.921875 318.695312 369.324219 C 317.835938 370.984375 316.125 372.070312 315.140625 373.636719 " fill-opacity="1" fill-rule="evenodd"/></g><path fill="rgb(98.81897%, 84.709167%, 75.289917%)" d="M 228.3125 262.554688 C 225.800781 262.609375 223.210938 261.414062 222.238281 260.027344 C 221.980469 260.015625 221.777344 260.0625 221.644531 260.175781 C 221.53125 260.207031 221.472656 260.300781 221.496094 260.472656 C 221.199219 261.269531 222.488281 261.757812 222.683594 262.554688 C 221.660156 264.679688 218.332031 267.839844 218.980469 271.03125 C 219.316406 272.699219 222.042969 273.285156 224.015625 272.667969 C 227.144531 271.6875 228.945312 267.125 229.648438 263.746094 C 231.023438 263.046875 232.46875 262.414062 232.90625 260.769531 C 231.421875 260.941406 230.335938 262.511719 228.3125 262.554688 Z M 239.871094 254.527344 C 237.527344 252.679688 235.171875 253.269531 233.648438 255.269531 C 232.820312 256.355469 231.621094 258.324219 232.757812 259.136719 C 234.417969 258.03125 234.425781 255.0625 236.460938 254.671875 C 238.089844 254.363281 239.097656 255.585938 239.277344 256.605469 C 239.539062 258.085938 238.507812 260.507812 240.167969 261.066406 C 240.53125 259.113281 240.566406 256.621094 239.871094 254.527344 Z M 223.867188 254.226562 C 222.035156 249.296875 215.503906 253.292969 215.867188 257.945312 C 217.757812 258.226562 217.503906 255.152344 218.683594 254.226562 C 221.953125 251.273438 223.449219 255.527344 223.570312 258.839844 C 224.507812 257.753906 224.316406 255.429688 223.867188 254.226562 Z M 263.429688 264.042969 C 261.015625 269.84375 256.910156 273.832031 251.722656 277.425781 C 250.101562 278.550781 247.371094 281.039062 245.5 280.996094 C 244.574219 280.972656 242.851562 279.859375 241.5 279.507812 C 234.882812 277.78125 226.894531 278.484375 220.757812 276.386719 C 216.558594 274.949219 211.429688 271.019531 210.382812 266.570312 C 209.457031 262.617188 211.054688 257.519531 212.753906 254.972656 C 218.855469 245.828125 238.554688 248.863281 248.019531 252.742188 C 254.296875 255.3125 259.484375 259.125 263.429688 264.042969 " fill-opacity="1" fill-rule="evenodd"/><path fill="rgb(93.728638%, 61.178589%, 61.178589%)" d="M 223.570312 258.839844 C 223.449219 255.527344 221.953125 251.273438 218.683594 254.226562 C 217.503906 255.152344 217.757812 258.226562 215.867188 257.945312 C 215.503906 253.292969 222.035156 249.296875 223.867188 254.226562 C 224.316406 255.429688 224.507812 257.753906 223.570312 258.839844 " fill-opacity="1" fill-rule="evenodd"/><path fill="rgb(93.728638%, 61.178589%, 61.178589%)" d="M 240.167969 261.070312 C 238.507812 260.507812 239.539062 258.089844 239.277344 256.609375 C 239.097656 255.585938 238.089844 254.363281 236.460938 254.675781 C 234.425781 255.0625 234.417969 258.03125 232.757812 259.136719 C 231.621094 258.324219 232.820312 256.355469 233.648438 255.269531 C 235.171875 253.269531 237.527344 252.679688 239.871094 254.527344 C 240.566406 256.621094 240.53125 259.113281 240.167969 261.070312 " fill-opacity="1" fill-rule="evenodd"/><path fill="rgb(93.728638%, 61.178589%, 61.178589%)" d="M 221.644531 271.476562 C 224.804688 272.027344 226.9375 268.695312 227.425781 266.125 C 224.984375 267.394531 223.039062 269.15625 221.644531 271.476562 Z M 223.867188 263 C 222.433594 265.230469 220.625 267.082031 220.3125 270.4375 C 221.980469 268.964844 223.667969 266.554688 225.941406 265.378906 C 226.71875 264.980469 227.886719 265.015625 228.3125 264.042969 C 227.011719 263.765625 225.585938 263.609375 223.867188 263 Z M 232.90625 260.769531 C 232.46875 262.414062 231.023438 263.046875 229.648438 263.746094 C 228.945312 267.125 227.144531 271.6875 224.015625 272.667969 C 222.042969 273.285156 219.316406 272.703125 218.980469 271.03125 C 218.332031 267.839844 221.660156 264.679688 222.683594 262.554688 C 222.488281 261.757812 221.199219 261.269531 221.496094 260.472656 C 221.472656 260.300781 221.53125 260.207031 221.644531 260.175781 C 221.777344 260.0625 221.980469 260.015625 222.238281 260.027344 C 223.210938 261.414062 225.800781 262.609375 228.3125 262.554688 C 230.335938 262.511719 231.421875 260.941406 232.90625 260.769531 " fill-opacity="1" fill-rule="evenodd"/><path fill="rgb(84.709167%, 38.038635%, 38.038635%)" d="M 228.3125 264.042969 C 227.890625 265.019531 226.71875 264.980469 225.941406 265.378906 C 223.667969 266.554688 221.980469 268.964844 220.3125 270.4375 C 220.625 267.085938 222.433594 265.230469 223.867188 263 C 225.585938 263.609375 227.011719 263.765625 228.3125 264.042969 " fill-opacity="1" fill-rule="evenodd"/><path fill="rgb(92.939758%, 79.60968%, 73.728943%)" d="M 264.023438 265.082031 C 264.148438 265.054688 264.160156 265.140625 264.171875 265.230469 C 268.578125 271.898438 274.367188 279.265625 273.652344 289.917969 C 273.226562 296.304688 270.421875 302.933594 266.984375 306.722656 C 262.125 312.078125 255.527344 313.957031 248.910156 317.28125 C 247.390625 315.007812 245.800781 311.945312 242.6875 311.332031 C 240.554688 310.910156 237.871094 311.40625 236.609375 309.101562 C 242.898438 306.285156 250.066406 301.4375 250.390625 292 C 250.519531 288.203125 248.753906 283.988281 246.835938 282.183594 C 254.109375 278.035156 260.894531 273.394531 264.023438 265.082031 " fill-opacity="1" fill-rule="evenodd"/><path fill="rgb(100%, 59.999084%, 59.999084%)" d="M 227.425781 266.125 C 226.9375 268.695312 224.804688 272.027344 221.644531 271.476562 C 223.039062 269.15625 224.984375 267.394531 227.425781 266.125 " fill-opacity="1" fill-rule="evenodd"/><path fill="rgb(98.81897%, 84.709167%, 75.289917%)" d="M 247.722656 317.875 C 242.996094 321.0625 237.816406 323.792969 235.425781 329.324219 C 230.316406 329.851562 226.199219 328.46875 222.535156 327.09375 C 221.242188 324.621094 217.324219 324.164062 216.460938 321.742188 C 219.902344 314.886719 227.21875 311.917969 234.980469 309.398438 C 236.003906 310.050781 236.101562 310.921875 237.054688 311.480469 C 238.714844 312.445312 241.007812 312.160156 242.980469 312.816406 C 245.464844 313.644531 246.261719 316.042969 247.722656 317.875 " fill-opacity="1" fill-rule="evenodd"/><path fill="rgb(92.939758%, 79.60968%, 73.728943%)" d="M 215.71875 322.929688 C 216.554688 324.621094 218.542969 324.976562 220.015625 326.050781 C 220.714844 326.5625 221.0625 327.46875 221.792969 327.984375 C 223.296875 329.046875 225.597656 329.195312 228.164062 329.769531 C 230.328125 330.253906 232.113281 331.066406 234.832031 330.511719 C 234.160156 335.140625 236.289062 338.011719 238.09375 340.625 C 235.339844 343.984375 231.816406 348.125 229.796875 352.96875 C 228.945312 355 227.640625 357.640625 228.460938 359.511719 C 220.640625 356.042969 212.164062 348.761719 212.164062 337.355469 C 212.164062 332.089844 213.246094 326.773438 215.71875 322.929688 " fill-opacity="1" fill-rule="evenodd"/><path fill="rgb(98.81897%, 84.709167%, 75.289917%)" d="M 262.097656 343.453125 C 262.355469 346.1875 262.761719 350.765625 262.539062 354.457031 C 262.347656 357.636719 261.75 360.570312 258.539062 360.699219 C 258.285156 361.585938 258.023438 362.464844 257.800781 363.378906 C 247.847656 364.597656 236.464844 363.941406 229.5 360.105469 C 229.480469 352.558594 234.945312 346.496094 238.980469 341.519531 C 243.960938 345.878906 254.40625 344.195312 262.097656 343.453125 " fill-opacity="1" fill-rule="evenodd"/><g clip-path="url(#id8)"><path fill="rgb(92.939758%, 79.60968%, 73.728943%)" d="M 281.503906 341.964844 C 282.023438 345.199219 282.824219 350.179688 282.246094 353.265625 C 281.988281 354.652344 280.617188 355.648438 280.171875 356.835938 C 279.464844 358.722656 280.269531 360.402344 280.023438 362.632812 C 274.671875 362.832031 266.3125 362.585938 259.28125 363.378906 C 259.070312 360.964844 260.800781 361.886719 261.949219 360.851562 C 264.589844 358.457031 263.109375 351.824219 263.28125 347.019531 C 263.324219 345.863281 263.753906 344.5 263.429688 343.152344 C 269.671875 342.328125 275.976562 342.46875 281.503906 341.964844 " fill-opacity="1" fill-rule="evenodd"/></g><g clip-path="url(#id9)"><path fill="rgb(98.81897%, 84.709167%, 75.289917%)" d="M 282.988281 341.964844 C 292.972656 341.800781 302.351562 343.753906 309.804688 346.871094 C 314.3125 348.753906 319.320312 351.835938 319.140625 358.46875 C 318.941406 365.800781 315.902344 371.878906 309.660156 374.234375 C 309.332031 374.433594 308.078125 374.238281 307.4375 374.53125 C 308.28125 375.769531 310.410156 375.746094 312.027344 375.867188 C 313.820312 376.007812 315.613281 375.753906 317.214844 375.71875 C 316.023438 381.621094 315.449219 388.441406 316.324219 394.160156 C 308.769531 394.691406 300.546875 394.285156 293.804688 392.375 C 287.917969 390.707031 282.976562 388.964844 279.875 385.980469 C 277.074219 383.285156 276.113281 378.675781 278.839844 375.125 C 280.226562 373.316406 282.777344 371.976562 285.210938 370.8125 C 288.699219 369.144531 294.328125 367.03125 292.027344 361.742188 C 291.65625 360.898438 291.085938 359.90625 290.246094 359.660156 C 289.160156 360.304688 290.597656 361.347656 290.691406 362.1875 C 287.808594 362.445312 284.277344 362.230469 281.359375 362.632812 C 281.566406 360.667969 280.832031 359.460938 281.210938 357.726562 C 281.519531 356.296875 282.976562 355.257812 283.285156 354.15625 C 284.292969 350.542969 282.792969 346.699219 282.988281 342.410156 C 282.988281 342.261719 282.988281 342.113281 282.988281 341.964844 " fill-opacity="1" fill-rule="evenodd"/></g><g clip-path="url(#id10)"><path fill="rgb(58.039856%, 81.17981%, 76.858521%)" d="M 334.140625 12.054688 C 331.96875 8.167969 274.585938 8.28125 271.5 12.054688 C 263.800781 21.464844 268.441406 140.917969 268.597656 187.199219 C 268.441406 233.476562 263.800781 352.929688 271.5 362.339844 C 274.585938 366.113281 331.96875 366.226562 334.140625 362.339844 C 340.667969 350.671875 336.121094 234.460938 335.894531 187.199219 C 336.121094 139.933594 340.667969 23.726562 334.140625 12.054688 Z M 334.140625 12.054688 " fill-opacity="1" fill-rule="nonzero"/></g><g clip-path="url(#id11)"><path fill="rgb(65.879822%, 84.309387%, 81.17981%)" d="M 328.664062 42.238281 C 326.863281 39.019531 279.371094 39.113281 276.816406 42.238281 C 270.445312 50.027344 274.285156 148.894531 274.414062 187.199219 C 274.285156 225.5 270.445312 324.371094 276.816406 332.160156 C 279.371094 335.28125 326.863281 335.378906 328.664062 332.160156 C 334.0625 322.5 330.300781 226.316406 330.113281 187.199219 C 330.300781 148.082031 334.066406 51.898438 328.664062 42.238281 Z M 328.664062 42.238281 " fill-opacity="1" fill-rule="nonzero"/></g><g clip-path="url(#id12)"><path fill="rgb(96.859741%, 69.018555%, 49.409485%)" d="M 266.441406 14.691406 C 264.53125 10.667969 207.269531 6.953125 203.941406 10.511719 C 195.628906 19.390625 192.289062 138.886719 189.351562 185.074219 C 186.109375 231.238281 173.5 350.117188 180.554688 360.019531 C 183.382812 363.988281 240.625 367.933594 243.054688 364.199219 C 250.347656 352.988281 253.566406 236.734375 256.496094 189.5625 C 259.875 142.417969 272.175781 26.773438 266.441406 14.691406 Z M 266.441406 14.691406 " fill-opacity="1" fill-rule="nonzero"/></g><g clip-path="url(#id13)"><path stroke-linecap="round" transform="matrix(1.74002, 0, 0, 1.739411, -182.222254, -182.409158)" fill="none" stroke-linejoin="round" d="M 302.043645 208.484115 C 302.043645 208.484115 302.043645 208.939998 302.043645 209.788885 C 301.850579 218.536007 301.531797 226.369117 301.895478 234.961284 C 301.960582 236.504101 302.02793 238.078359 302.043645 239.670582 C 302.043645 247.880975 302.043645 256.902076 302.043645 265.687376 C 302.043645 267.151593 302.057114 268.609072 302.104258 270.06206 C 303.532043 279.36837 301.534042 288.36926 301.951602 297.046765 C 302.01446 298.084293 302.03242 299.079151 302.045889 300.02685 C 302.045889 306.662985 302.045889 310.817588 302.045889 310.817588 " stroke="rgb(69.40918%, 49.798584%, 29.019165%)" stroke-width="7" stroke-opacity="1" stroke-miterlimit="10"/></g><g clip-path="url(#id14)"><path fill="rgb(93.728638%, 61.178589%, 61.178589%)" d="M 331.882812 393.265625 C 334.414062 392.886719 337.082031 392.417969 338.847656 391.484375 C 341.644531 390.003906 344.519531 385.882812 342.847656 381.519531 C 340.394531 375.117188 326.050781 376.21875 318.546875 375.867188 C 316.953125 380.648438 316.503906 388.609375 317.660156 394.308594 C 323.089844 394.265625 327.558594 393.921875 331.882812 393.265625 Z M 282.988281 342.410156 C 282.792969 346.699219 284.292969 350.542969 283.285156 354.15625 C 282.976562 355.253906 281.519531 356.296875 281.210938 357.726562 C 280.832031 359.460938 281.566406 360.667969 281.359375 362.632812 C 284.277344 362.230469 287.808594 362.445312 290.691406 362.1875 C 290.597656 361.347656 289.160156 360.304688 290.25 359.660156 C 291.085938 359.90625 291.660156 360.898438 292.027344 361.742188 C 294.328125 367.03125 288.703125 369.144531 285.210938 370.8125 C 282.777344 371.976562 280.226562 373.316406 278.839844 375.125 C 276.113281 378.675781 277.074219 383.285156 279.875 385.980469 C 282.976562 388.964844 287.921875 390.707031 293.804688 392.375 C 300.546875 394.285156 308.769531 394.691406 316.324219 394.160156 C 315.449219 388.441406 316.023438 381.621094 317.214844 375.71875 C 315.613281 375.753906 313.820312 376.007812 312.027344 375.867188 C 310.410156 375.746094 308.28125 375.769531 307.4375 374.53125 C 308.078125 374.238281 309.332031 374.433594 309.660156 374.234375 C 315.90625 371.878906 318.941406 365.800781 319.140625 358.46875 C 319.320312 351.835938 314.3125 348.753906 309.808594 346.871094 C 302.347656 343.753906 292.972656 341.800781 282.988281 341.964844 C 282.988281 342.113281 282.988281 342.261719 282.988281 342.410156 Z M 263.429688 343.152344 C 263.753906 344.5 263.324219 345.863281 263.28125 347.019531 C 263.109375 351.824219 264.59375 358.457031 261.949219 360.851562 C 260.800781 361.886719 259.070312 360.964844 259.28125 363.378906 C 266.3125 362.585938 274.671875 362.832031 280.023438 362.632812 C 280.269531 360.402344 279.464844 358.722656 280.171875 356.835938 C 280.617188 355.648438 281.988281 354.652344 282.246094 353.265625 C 282.824219 350.179688 282.023438 345.199219 281.507812 341.964844 C 275.976562 342.464844 269.671875 342.328125 263.429688 343.152344 Z M 238.980469 341.519531 C 234.945312 346.496094 229.480469 352.558594 229.5 360.105469 C 236.464844 363.941406 247.847656 364.597656 257.800781 363.378906 C 258.023438 362.464844 258.285156 361.585938 258.539062 360.699219 C 261.75 360.570312 262.347656 357.636719 262.539062 354.457031 C 262.761719 350.765625 262.355469 346.1875 262.097656 343.449219 C 254.40625 344.195312 243.960938 345.878906 238.980469 341.519531 Z M 212.164062 337.355469 C 212.164062 348.761719 220.640625 356.042969 228.460938 359.511719 C 227.640625 357.640625 228.945312 355 229.796875 352.96875 C 231.816406 348.125 235.339844 343.984375 238.09375 340.625 C 236.289062 338.011719 234.160156 335.140625 234.832031 330.511719 C 232.113281 331.066406 230.328125 330.253906 228.164062 329.769531 C 225.597656 329.195312 223.296875 329.046875 221.792969 327.984375 C 221.0625 327.46875 220.714844 326.5625 220.015625 326.050781 C 218.542969 324.976562 216.554688 324.621094 215.71875 322.929688 C 213.246094 326.773438 212.164062 332.089844 212.164062 337.355469 Z M 242.980469 312.816406 C 241.007812 312.160156 238.714844 312.445312 237.054688 311.480469 C 236.101562 310.921875 236.003906 310.050781 234.980469 309.398438 C 227.21875 311.917969 219.902344 314.886719 216.460938 321.738281 C 217.324219 324.164062 221.242188 324.621094 222.535156 327.09375 C 226.199219 328.46875 230.316406 329.851562 235.425781 329.324219 C 237.816406 323.792969 242.996094 321.058594 247.722656 317.875 C 246.261719 316.042969 245.464844 313.640625 242.980469 312.816406 Z M 246.835938 282.183594 C 248.753906 283.988281 250.519531 288.203125 250.390625 292 C 250.066406 301.4375 242.898438 306.285156 236.609375 309.101562 C 237.871094 311.40625 240.554688 310.910156 242.6875 311.332031 C 245.800781 311.945312 247.390625 315.007812 248.910156 317.277344 C 255.527344 313.957031 262.125 312.078125 266.984375 306.722656 C 270.421875 302.933594 273.226562 296.304688 273.652344 289.917969 C 274.367188 279.265625 268.578125 271.898438 264.171875 265.230469 C 264.160156 265.140625 264.148438 265.054688 264.023438 265.082031 C 260.894531 273.394531 254.109375 278.035156 246.835938 282.183594 Z M 248.019531 252.742188 C 238.554688 248.863281 218.855469 245.828125 212.753906 254.972656 C 211.054688 257.519531 209.457031 262.617188 210.382812 266.570312 C 211.429688 271.019531 216.558594 274.949219 220.757812 276.386719 C 226.894531 278.484375 234.882812 277.78125 241.5 279.507812 C 242.851562 279.859375 244.574219 280.972656 245.5 280.996094 C 247.371094 281.039062 250.101562 278.550781 251.722656 277.425781 C 256.910156 273.832031 261.015625 269.84375 263.429688 264.042969 C 259.484375 259.125 254.296875 255.3125 248.019531 252.742188 Z M 315.140625 373.636719 C 325.753906 374.238281 341.015625 372.441406 344.480469 380.628906 C 345.199219 382.332031 345.535156 385.453125 344.773438 387.765625 C 342.394531 395.007812 331.964844 395.929688 322.253906 396.390625 C 315.890625 396.691406 309.09375 396.652344 303.289062 396.09375 C 297.050781 395.492188 292.214844 394.308594 287.136719 392.375 C 282.449219 390.589844 277.464844 387.859375 275.726562 383.898438 C 272.980469 377.644531 277.476562 372.726562 281.210938 370.367188 C 284.253906 368.441406 288.464844 367.84375 290.394531 364.566406 C 281.410156 364.648438 273.753906 365.078125 265.355469 365.164062 C 263.257812 365.183594 261.332031 365.097656 259.429688 365.3125 C 258.8125 365.378906 258.179688 365.234375 257.652344 365.3125 C 256.84375 365.429688 256.359375 365.984375 255.578125 366.054688 C 254.945312 366.109375 254.207031 365.796875 253.5 365.757812 C 251.578125 365.648438 249.210938 365.796875 247.128906 365.90625 C 244.183594 366.0625 241.46875 365.632812 238.980469 365.164062 C 229.289062 363.328125 220.9375 358.613281 215.71875 351.925781 C 213.097656 348.566406 210.769531 344.214844 210.238281 339.140625 C 208.894531 326.378906 215.273438 317.480469 221.941406 312.667969 C 229.113281 307.5 241.785156 307.050781 246.390625 299.136719 C 249.675781 293.492188 248.804688 284.59375 242.980469 282.035156 C 239.910156 280.6875 236.105469 280.777344 232.3125 280.398438 C 224.6875 279.644531 218.34375 278.371094 213.644531 274.453125 C 210.191406 271.574219 206.890625 266.804688 208.457031 259.582031 C 210.097656 252.023438 216.273438 247.453125 224.757812 246.792969 C 235.386719 245.960938 243.960938 248.425781 250.835938 251.550781 C 260.296875 255.855469 266.070312 263.378906 271.132812 272.222656 C 272.382812 274.402344 273.695312 276.878906 274.394531 279.210938 C 276.273438 285.464844 275.515625 292.429688 273.949219 297.5 C 272.273438 302.929688 269.617188 306.964844 265.949219 310.140625 C 262.175781 313.40625 257.621094 315.648438 252.910156 317.875 C 250.558594 318.984375 248.296875 320.070312 246.09375 321.441406 C 242.523438 323.667969 238.617188 326.289062 237.203125 330.511719 C 235.59375 335.332031 239.511719 340.324219 243.574219 341.519531 C 248.933594 343.089844 256.332031 341.886719 262.539062 341.070312 C 268.652344 340.265625 275.808594 339.734375 281.949219 339.734375 C 288.636719 339.734375 295.339844 340.136719 300.769531 341.519531 C 303.640625 342.25 306.152344 343.15625 308.621094 344.046875 C 311.207031 344.980469 313.75 345.992188 315.734375 347.316406 C 317.226562 348.316406 319.957031 352.121094 320.625 353.859375 C 322.304688 358.242188 320.457031 365.921875 318.695312 369.324219 C 317.835938 370.984375 316.125 372.070312 315.140625 373.636719 " fill-opacity="1" fill-rule="evenodd"/></g><path fill="rgb(98.81897%, 84.709167%, 75.289917%)" d="M 228.3125 262.554688 C 225.800781 262.609375 223.210938 261.414062 222.238281 260.027344 C 221.980469 260.015625 221.777344 260.0625 221.644531 260.175781 C 221.53125 260.207031 221.472656 260.300781 221.496094 260.472656 C 221.199219 261.269531 222.488281 261.757812 222.683594 262.554688 C 221.660156 264.679688 218.332031 267.839844 218.980469 271.03125 C 219.316406 272.699219 222.042969 273.285156 224.015625 272.667969 C 227.144531 271.6875 228.945312 267.125 229.648438 263.746094 C 231.023438 263.046875 232.46875 262.414062 232.90625 260.769531 C 231.421875 260.941406 230.335938 262.511719 228.3125 262.554688 Z M 239.871094 254.527344 C 237.527344 252.679688 235.171875 253.269531 233.648438 255.269531 C 232.820312 256.355469 231.621094 258.324219 232.757812 259.136719 C 234.417969 258.03125 234.425781 255.0625 236.460938 254.671875 C 238.089844 254.363281 239.097656 255.585938 239.277344 256.605469 C 239.539062 258.085938 238.507812 260.507812 240.167969 261.066406 C 240.53125 259.113281 240.566406 256.621094 239.871094 254.527344 Z M 223.867188 254.226562 C 222.035156 249.296875 215.503906 253.292969 215.867188 257.945312 C 217.757812 258.226562 217.503906 255.152344 218.683594 254.226562 C 221.953125 251.273438 223.449219 255.527344 223.570312 258.839844 C 224.507812 257.753906 224.316406 255.429688 223.867188 254.226562 Z M 263.429688 264.042969 C 261.015625 269.84375 256.910156 273.832031 251.722656 277.425781 C 250.101562 278.550781 247.371094 281.039062 245.5 280.996094 C 244.574219 280.972656 242.851562 279.859375 241.5 279.507812 C 234.882812 277.78125 226.894531 278.484375 220.757812 276.386719 C 216.558594 274.949219 211.429688 271.019531 210.382812 266.570312 C 209.457031 262.617188 211.054688 257.519531 212.753906 254.972656 C 218.855469 245.828125 238.554688 248.863281 248.019531 252.742188 C 254.296875 255.3125 259.484375 259.125 263.429688 264.042969 " fill-opacity="1" fill-rule="evenodd"/><path fill="rgb(93.728638%, 61.178589%, 61.178589%)" d="M 223.570312 258.839844 C 223.449219 255.527344 221.953125 251.273438 218.683594 254.226562 C 217.503906 255.152344 217.757812 258.226562 215.867188 257.945312 C 215.503906 253.292969 222.035156 249.296875 223.867188 254.226562 C 224.316406 255.429688 224.507812 257.753906 223.570312 258.839844 " fill-opacity="1" fill-rule="evenodd"/><path fill="rgb(93.728638%, 61.178589%, 61.178589%)" d="M 240.167969 261.070312 C 238.507812 260.507812 239.539062 258.089844 239.277344 256.609375 C 239.097656 255.585938 238.089844 254.363281 236.460938 254.675781 C 234.425781 255.0625 234.417969 258.03125 232.757812 259.136719 C 231.621094 258.324219 232.820312 256.355469 233.648438 255.269531 C 235.171875 253.269531 237.527344 252.679688 239.871094 254.527344 C 240.566406 256.621094 240.53125 259.113281 240.167969 261.070312 " fill-opacity="1" fill-rule="evenodd"/><path fill="rgb(93.728638%, 61.178589%, 61.178589%)" d="M 221.644531 271.476562 C 224.804688 272.027344 226.9375 268.695312 227.425781 266.125 C 224.984375 267.394531 223.039062 269.15625 221.644531 271.476562 Z M 223.867188 263 C 222.433594 265.230469 220.625 267.082031 220.3125 270.4375 C 221.980469 268.964844 223.667969 266.554688 225.941406 265.378906 C 226.71875 264.980469 227.886719 265.015625 228.3125 264.042969 C 227.011719 263.765625 225.585938 263.609375 223.867188 263 Z M 232.90625 260.769531 C 232.46875 262.414062 231.023438 263.046875 229.648438 263.746094 C 228.945312 267.125 227.144531 271.6875 224.015625 272.667969 C 222.042969 273.285156 219.316406 272.703125 218.980469 271.03125 C 218.332031 267.839844 221.660156 264.679688 222.683594 262.554688 C 222.488281 261.757812 221.199219 261.269531 221.496094 260.472656 C 221.472656 260.300781 221.53125 260.207031 221.644531 260.175781 C 221.777344 260.0625 221.980469 260.015625 222.238281 260.027344 C 223.210938 261.414062 225.800781 262.609375 228.3125 262.554688 C 230.335938 262.511719 231.421875 260.941406 232.90625 260.769531 " fill-opacity="1" fill-rule="evenodd"/><path fill="rgb(84.709167%, 38.038635%, 38.038635%)" d="M 228.3125 264.042969 C 227.890625 265.019531 226.71875 264.980469 225.941406 265.378906 C 223.667969 266.554688 221.980469 268.964844 220.3125 270.4375 C 220.625 267.085938 222.433594 265.230469 223.867188 263 C 225.585938 263.609375 227.011719 263.765625 228.3125 264.042969 " fill-opacity="1" fill-rule="evenodd"/><g clip-path="url(#id15)"><path fill="rgb(92.939758%, 79.60968%, 73.728943%)" d="M 264.023438 265.082031 C 264.148438 265.054688 264.160156 265.140625 264.171875 265.230469 C 268.578125 271.898438 274.367188 279.265625 273.652344 289.917969 C 273.226562 296.304688 270.421875 302.933594 266.984375 306.722656 C 262.125 312.078125 255.527344 313.957031 248.910156 317.28125 C 247.390625 315.007812 245.800781 311.945312 242.6875 311.332031 C 240.554688 310.910156 237.871094 311.40625 236.609375 309.101562 C 242.898438 306.285156 250.066406 301.4375 250.390625 292 C 250.519531 288.203125 248.753906 283.988281 246.835938 282.183594 C 254.109375 278.035156 260.894531 273.394531 264.023438 265.082031 " fill-opacity="1" fill-rule="evenodd"/></g><path fill="rgb(100%, 59.999084%, 59.999084%)" d="M 227.425781 266.125 C 226.9375 268.695312 224.804688 272.027344 221.644531 271.476562 C 223.039062 269.15625 224.984375 267.394531 227.425781 266.125 " fill-opacity="1" fill-rule="evenodd"/><g clip-path="url(#id16)"><path fill="rgb(98.81897%, 84.709167%, 75.289917%)" d="M 247.722656 317.875 C 242.996094 321.0625 237.816406 323.792969 235.425781 329.324219 C 230.316406 329.851562 226.199219 328.46875 222.535156 327.09375 C 221.242188 324.621094 217.324219 324.164062 216.460938 321.742188 C 219.902344 314.886719 227.21875 311.917969 234.980469 309.398438 C 236.003906 310.050781 236.101562 310.921875 237.054688 311.480469 C 238.714844 312.445312 241.007812 312.160156 242.980469 312.816406 C 245.464844 313.644531 246.261719 316.042969 247.722656 317.875 " fill-opacity="1" fill-rule="evenodd"/></g></svg>